<svg width="103" height="31" viewBox="0 0 103 31" fill="none" xmlns="http://www.w3.org/2000/svg">
<path d="M0 8C0 3.58172 3.58172 0 8 0H103V26H8C3.58172 26 0 22.4183 0 18V8Z" fill="#004364"/>
<path d="M20.388 8.576H20.904V17H19.5V11.744L17.076 14.852H16.884L14.448 11.744V17H13.044V8.576H13.56L16.98 12.92L20.388 8.576ZM28.672 14.084C28.672 14.588 28.584 15.032 28.408 15.416C28.232 15.792 28 16.108 27.712 16.364C27.424 16.612 27.096 16.8 26.728 16.928C26.368 17.048 25.996 17.108 25.612 17.108C25.228 17.108 24.852 17.048 24.484 16.928C24.124 16.8 23.8 16.612 23.512 16.364C23.232 16.108 23.004 15.792 22.828 15.416C22.652 15.032 22.564 14.588 22.564 14.084C22.564 13.588 22.648 13.156 22.816 12.788C22.992 12.412 23.22 12.1 23.5 11.852C23.78 11.604 24.1 11.42 24.46 11.3C24.82 11.172 25.188 11.108 25.564 11.108C25.964 11.108 26.352 11.168 26.728 11.288C27.104 11.408 27.436 11.592 27.724 11.84C28.012 12.08 28.24 12.388 28.408 12.764C28.584 13.14 28.672 13.58 28.672 14.084ZM23.86 14.084C23.86 14.396 23.908 14.672 24.004 14.912C24.108 15.144 24.244 15.34 24.412 15.5C24.58 15.652 24.768 15.768 24.976 15.848C25.192 15.92 25.412 15.956 25.636 15.956C25.852 15.956 26.064 15.916 26.272 15.836C26.48 15.756 26.664 15.64 26.824 15.488C26.984 15.328 27.112 15.132 27.208 14.9C27.312 14.668 27.364 14.396 27.364 14.084C27.364 13.772 27.312 13.5 27.208 13.268C27.104 13.036 26.968 12.844 26.8 12.692C26.632 12.54 26.44 12.428 26.224 12.356C26.008 12.284 25.788 12.252 25.564 12.26C25.348 12.268 25.136 12.312 24.928 12.392C24.728 12.464 24.548 12.576 24.388 12.728C24.228 12.872 24.1 13.06 24.004 13.292C23.908 13.516 23.86 13.78 23.86 14.084ZM31.1299 15.296C31.1379 15.448 31.1819 15.58 31.2619 15.692C31.3419 15.796 31.4419 15.884 31.5619 15.956C31.6899 16.028 31.8299 16.084 31.9819 16.124C32.1339 16.156 32.2899 16.172 32.4499 16.172C32.6099 16.172 32.7699 16.16 32.9299 16.136C33.0899 16.104 33.2339 16.056 33.3619 15.992C33.4979 15.928 33.6059 15.84 33.6859 15.728C33.7739 15.608 33.8219 15.46 33.8299 15.284C33.8299 15.02 33.7099 14.836 33.4699 14.732C33.2299 14.628 32.9179 14.552 32.5339 14.504C32.2379 14.464 31.9379 14.42 31.6339 14.372C31.3379 14.324 31.0659 14.248 30.8179 14.144C30.5779 14.032 30.3779 13.88 30.2179 13.688C30.0659 13.496 29.9859 13.236 29.9779 12.908C29.9779 12.596 30.0459 12.328 30.1819 12.104C30.3259 11.88 30.5099 11.692 30.7339 11.54C30.9659 11.388 31.2299 11.276 31.5259 11.204C31.8219 11.132 32.1259 11.096 32.4379 11.096C32.7739 11.096 33.0899 11.132 33.3859 11.204C33.6899 11.276 33.9539 11.388 34.1779 11.54C34.4099 11.684 34.5899 11.864 34.7179 12.08C34.8459 12.296 34.9059 12.548 34.8979 12.836H33.7459C33.7459 12.692 33.7059 12.572 33.6259 12.476C33.5459 12.38 33.4419 12.304 33.3139 12.248C33.1939 12.184 33.0539 12.14 32.8939 12.116C32.7419 12.092 32.5899 12.08 32.4379 12.08C32.2859 12.08 32.1379 12.1 31.9939 12.14C31.8499 12.172 31.7179 12.224 31.5979 12.296C31.4859 12.36 31.3979 12.444 31.3339 12.548C31.2699 12.644 31.2419 12.756 31.2499 12.884C31.2579 13.124 31.3739 13.288 31.5979 13.376C31.8299 13.456 32.1739 13.524 32.6299 13.58C32.9339 13.62 33.2299 13.668 33.5179 13.724C33.8059 13.78 34.0579 13.868 34.2739 13.988C34.4979 14.108 34.6779 14.272 34.8139 14.48C34.9499 14.688 35.0179 14.964 35.0179 15.308C35.0179 15.628 34.9459 15.904 34.8019 16.136C34.6579 16.368 34.4699 16.56 34.2379 16.712C34.0059 16.856 33.7379 16.964 33.4339 17.036C33.1299 17.108 32.8179 17.144 32.4979 17.144C32.1779 17.144 31.8619 17.116 31.5499 17.06C31.2459 17.004 30.9699 16.904 30.7219 16.76C30.4819 16.616 30.2819 16.428 30.1219 16.196C29.9619 15.956 29.8699 15.656 29.8459 15.296H31.1299ZM38.4476 11.228H40.4516V12.164H38.4476V14.72C38.4476 15.216 38.5436 15.568 38.7356 15.776C38.9276 15.976 39.1796 16.08 39.4916 16.088C39.8036 16.088 40.1596 16.016 40.5596 15.872L40.6916 16.856C40.4356 16.936 40.1876 16.996 39.9476 17.036C39.7076 17.084 39.4756 17.108 39.2516 17.108C38.9396 17.108 38.6556 17.064 38.3996 16.976C38.1436 16.888 37.9236 16.748 37.7396 16.556C37.5556 16.364 37.4116 16.12 37.3076 15.824C37.2116 15.528 37.1636 15.168 37.1636 14.744V12.164L35.9876 12.08V11.228H37.1636L37.2956 9.44H38.4476V11.228ZM45.451 17V8.6H48.931C49.395 8.6 49.811 8.68 50.179 8.84C50.547 9 50.859 9.216 51.115 9.488C51.371 9.752 51.563 10.064 51.691 10.424C51.827 10.784 51.895 11.164 51.895 11.564C51.895 11.956 51.827 12.328 51.691 12.68C51.555 13.032 51.359 13.344 51.103 13.616C50.847 13.88 50.535 14.092 50.167 14.252C49.807 14.404 49.395 14.48 48.931 14.48H46.855V17H45.451ZM48.931 13.256C49.171 13.256 49.387 13.212 49.579 13.124C49.779 13.036 49.951 12.916 50.095 12.764C50.239 12.604 50.351 12.42 50.431 12.212C50.511 11.996 50.551 11.768 50.551 11.528C50.551 11.288 50.511 11.064 50.431 10.856C50.359 10.64 50.251 10.456 50.107 10.304C49.963 10.152 49.791 10.032 49.591 9.944C49.391 9.856 49.171 9.812 48.931 9.812H46.831V13.256H48.931ZM58.9462 14.084C58.9462 14.588 58.8582 15.032 58.6822 15.416C58.5062 15.792 58.2742 16.108 57.9862 16.364C57.6982 16.612 57.3702 16.8 57.0022 16.928C56.6422 17.048 56.2702 17.108 55.8862 17.108C55.5022 17.108 55.1262 17.048 54.7582 16.928C54.3982 16.8 54.0742 16.612 53.7862 16.364C53.5062 16.108 53.2782 15.792 53.1022 15.416C52.9262 15.032 52.8382 14.588 52.8382 14.084C52.8382 13.588 52.9222 13.156 53.0902 12.788C53.2662 12.412 53.4942 12.1 53.7742 11.852C54.0542 11.604 54.3742 11.42 54.7342 11.3C55.0942 11.172 55.4622 11.108 55.8382 11.108C56.2382 11.108 56.6262 11.168 57.0022 11.288C57.3782 11.408 57.7102 11.592 57.9982 11.84C58.2862 12.08 58.5142 12.388 58.6822 12.764C58.8582 13.14 58.9462 13.58 58.9462 14.084ZM54.1342 14.084C54.1342 14.396 54.1822 14.672 54.2782 14.912C54.3822 15.144 54.5182 15.34 54.6862 15.5C54.8542 15.652 55.0422 15.768 55.2502 15.848C55.4662 15.92 55.6862 15.956 55.9102 15.956C56.1262 15.956 56.3382 15.916 56.5462 15.836C56.7542 15.756 56.9382 15.64 57.0982 15.488C57.2582 15.328 57.3862 15.132 57.4822 14.9C57.5862 14.668 57.6382 14.396 57.6382 14.084C57.6382 13.772 57.5862 13.5 57.4822 13.268C57.3782 13.036 57.2422 12.844 57.0742 12.692C56.9062 12.54 56.7142 12.428 56.4982 12.356C56.2822 12.284 56.0622 12.252 55.8382 12.26C55.6222 12.268 55.4102 12.312 55.2022 12.392C55.0022 12.464 54.8222 12.576 54.6622 12.728C54.5022 12.872 54.3742 13.06 54.2782 13.292C54.1822 13.516 54.1342 13.78 54.1342 14.084ZM61.7761 12.164C62.0001 11.78 62.2841 11.508 62.6281 11.348C62.9721 11.188 63.3521 11.108 63.7681 11.108C64.1921 11.108 64.5681 11.188 64.8961 11.348C65.2241 11.508 65.4961 11.724 65.7121 11.996C65.9361 12.268 66.1041 12.584 66.2161 12.944C66.3281 13.304 66.3841 13.68 66.3841 14.072C66.3841 14.536 66.3041 14.96 66.1441 15.344C65.9921 15.72 65.7841 16.044 65.5201 16.316C65.2561 16.58 64.9481 16.78 64.5961 16.916C64.2441 17.052 63.8761 17.112 63.4921 17.096C63.2521 17.08 63.0081 17.036 62.7601 16.964C62.5121 16.892 62.2681 16.784 62.0281 16.64V19.976H60.7201V13.076C60.7201 12.908 60.7201 12.764 60.7201 12.644C60.7201 12.516 60.7001 12.412 60.6601 12.332C60.6281 12.244 60.5681 12.18 60.4801 12.14C60.4001 12.1 60.2761 12.08 60.1081 12.08L60.0961 11.18C60.3361 11.132 60.5561 11.108 60.7561 11.108C60.9641 11.108 61.1441 11.144 61.2961 11.216C61.4481 11.288 61.5641 11.4 61.6441 11.552C61.7321 11.704 61.7761 11.908 61.7761 12.164ZM62.0041 15.488C62.2441 15.656 62.4921 15.78 62.7481 15.86C63.0041 15.94 63.2481 15.972 63.4801 15.956C63.6961 15.948 63.9001 15.9 64.0921 15.812C64.2841 15.724 64.4521 15.6 64.5961 15.44C64.7401 15.28 64.8521 15.088 64.9321 14.864C65.0201 14.632 65.0641 14.368 65.0641 14.072C65.0641 13.832 65.0321 13.604 64.9681 13.388C64.9041 13.172 64.8041 12.98 64.6681 12.812C64.5401 12.644 64.3801 12.512 64.1881 12.416C63.9961 12.32 63.7681 12.272 63.5041 12.272C63.2801 12.272 63.0761 12.312 62.8921 12.392C62.7081 12.472 62.5481 12.584 62.4121 12.728C62.2841 12.872 62.1841 13.04 62.1121 13.232C62.0401 13.416 62.0041 13.616 62.0041 13.832V15.488ZM73.2314 11.216V15.344C73.2314 15.52 73.2354 15.664 73.2434 15.776C73.2594 15.888 73.2874 15.976 73.3274 16.04C73.3674 16.104 73.4274 16.148 73.5074 16.172C73.5954 16.188 73.7074 16.188 73.8434 16.172L73.8554 17.024C73.6714 17.056 73.4714 17.08 73.2554 17.096C73.0474 17.12 72.8514 17.108 72.6674 17.06C72.4914 17.012 72.3434 16.912 72.2234 16.76C72.1114 16.608 72.0554 16.376 72.0554 16.064C71.8554 16.456 71.5714 16.728 71.2034 16.88C70.8434 17.024 70.4594 17.096 70.0514 17.096C69.6514 17.096 69.3114 17.032 69.0314 16.904C68.7594 16.768 68.5394 16.588 68.3714 16.364C68.2034 16.132 68.0794 15.864 67.9994 15.56C67.9274 15.248 67.8914 14.916 67.8914 14.564V11.216H69.2114V14.564C69.2034 15.028 69.3114 15.392 69.5354 15.656C69.7674 15.92 70.0754 16.052 70.4594 16.052C70.8754 16.052 71.2234 15.916 71.5034 15.644C71.7834 15.364 71.9234 14.992 71.9234 14.528V11.216H73.2314ZM76.5996 8.216V14.912C76.5996 15.32 76.6556 15.612 76.7676 15.788C76.8796 15.964 77.0956 16.052 77.4156 16.052C77.5356 16.052 77.6796 16.04 77.8476 16.016L77.8956 17.024C77.7356 17.048 77.5796 17.068 77.4276 17.084C77.2836 17.1 77.1436 17.108 77.0076 17.108C76.4236 17.1 75.9916 16.932 75.7116 16.604C75.4396 16.268 75.3036 15.708 75.3036 14.924V8.216H76.5996ZM82.8166 16.028C82.7206 16.22 82.5926 16.384 82.4326 16.52C82.2806 16.656 82.1086 16.768 81.9166 16.856C81.7246 16.944 81.5206 17.008 81.3046 17.048C81.0966 17.088 80.8926 17.108 80.6926 17.108C80.3406 17.108 80.0366 17.06 79.7806 16.964C79.5246 16.868 79.3086 16.74 79.1326 16.58C78.9566 16.42 78.8246 16.24 78.7366 16.04C78.6566 15.832 78.6166 15.616 78.6166 15.392C78.6166 15.12 78.6646 14.868 78.7606 14.636C78.8566 14.404 78.9966 14.2 79.1806 14.024C79.3646 13.848 79.5966 13.712 79.8766 13.616C80.1566 13.512 80.4846 13.46 80.8606 13.46C81.1406 13.46 81.4326 13.488 81.7366 13.544C82.0406 13.6 82.3206 13.7 82.5766 13.844V13.124C82.5766 12.884 82.5086 12.692 82.3726 12.548C82.2446 12.404 82.0766 12.3 81.8686 12.236C81.6686 12.164 81.4406 12.128 81.1846 12.128C80.9366 12.12 80.6886 12.132 80.4406 12.164C80.2006 12.196 79.9726 12.244 79.7566 12.308C79.5486 12.364 79.3846 12.42 79.2646 12.476L79.0606 11.528C79.3566 11.376 79.6886 11.268 80.0566 11.204C80.4326 11.14 80.8126 11.108 81.1966 11.108C81.5486 11.108 81.8846 11.14 82.2046 11.204C82.5246 11.268 82.8046 11.38 83.0446 11.54C83.2926 11.692 83.4886 11.9 83.6326 12.164C83.7766 12.428 83.8486 12.76 83.8486 13.16V15.44C83.8486 15.576 83.8486 15.696 83.8486 15.8C83.8566 15.904 83.8766 15.992 83.9086 16.064C83.9486 16.128 84.0086 16.176 84.0886 16.208C84.1686 16.24 84.2886 16.248 84.4486 16.232L84.4726 17.012C84.2406 17.06 84.0246 17.088 83.8246 17.096C83.6326 17.112 83.4606 17.088 83.3086 17.024C83.1646 16.96 83.0486 16.852 82.9606 16.7C82.8726 16.54 82.8246 16.316 82.8166 16.028ZM82.5766 14.684C82.4326 14.596 82.2126 14.516 81.9166 14.444C81.6206 14.372 81.3286 14.336 81.0406 14.336C80.7286 14.336 80.4606 14.42 80.2366 14.588C80.0126 14.756 79.9006 14.996 79.9006 15.308C79.9006 15.564 79.9846 15.76 80.1526 15.896C80.3206 16.032 80.5886 16.1 80.9566 16.1C81.1246 16.1 81.2966 16.076 81.4726 16.028C81.6566 15.98 81.8246 15.904 81.9766 15.8C82.1286 15.688 82.2566 15.544 82.3606 15.368C82.4726 15.184 82.5446 14.956 82.5766 14.684ZM87.3025 12.068C87.3585 11.908 87.4465 11.768 87.5665 11.648C87.6865 11.528 87.8225 11.428 87.9745 11.348C88.1265 11.268 88.2905 11.208 88.4665 11.168C88.6505 11.128 88.8305 11.108 89.0065 11.108C89.2465 11.1 89.4825 11.132 89.7145 11.204C89.9465 11.276 90.1545 11.38 90.3385 11.516L90.0145 12.644C89.6625 12.412 89.2785 12.296 88.8625 12.296C88.6705 12.296 88.4825 12.324 88.2985 12.38C88.1225 12.436 87.9665 12.52 87.8305 12.632C87.6945 12.744 87.5865 12.888 87.5065 13.064C87.4265 13.232 87.3865 13.432 87.3865 13.664V17H86.0905V12.812C86.0905 12.684 86.0865 12.572 86.0785 12.476C86.0705 12.38 86.0465 12.3 86.0065 12.236C85.9745 12.172 85.9145 12.128 85.8265 12.104C85.7385 12.072 85.6185 12.06 85.4665 12.068L85.4545 11.18C85.6705 11.132 85.8825 11.108 86.0905 11.108C86.3065 11.108 86.4985 11.14 86.6665 11.204C86.8425 11.268 86.9865 11.372 87.0985 11.516C87.2185 11.652 87.2865 11.836 87.3025 12.068Z" fill="white"/>
<path d="M103 26H97V31L103 26Z" fill="#004364"/>
</svg>
